<svg width="425" height="425" viewBox="0 0 425 425" fill="none" xmlns="http://www.w3.org/2000/svg">
<path d="M131.054 85.4145C136.616 92.2818 135.557 102.357 128.689 107.918C121.822 113.479 111.747 112.42 106.186 105.553C100.625 98.6854 101.684 88.6103 108.551 83.0493C115.418 77.4883 125.493 78.5472 131.054 85.4145Z" fill="#F5661A"/>
<path d="M172.838 66.7694C175.892 74.6837 171.952 83.5752 164.038 86.6291C156.123 89.683 147.232 85.7428 144.178 77.8285C141.124 69.9141 145.064 61.0226 152.979 57.9687C160.893 54.9149 169.784 58.855 172.838 66.7694Z" fill="#F5661A"/>
<path d="M217.075 62.1983C217.631 70.3228 211.495 77.3591 203.37 77.9144C195.246 78.4697 188.209 72.3337 187.654 64.2092C187.099 56.0847 193.235 49.0484 201.359 48.4931C209.484 47.9378 216.52 54.0738 217.075 62.1983Z" fill="#F5661A"/>
<path d="M259.192 69.484C257.488 77.1136 249.922 81.9172 242.292 80.2132C234.663 78.5092 229.859 70.9428 231.563 63.3132C233.267 55.6836 240.833 50.8799 248.463 52.5839C256.093 54.288 260.896 61.8544 259.192 69.484Z" fill="#F5661A"/>
<path d="M297.73 84.2641C295.913 91.5464 288.536 95.9768 281.254 94.1598C273.972 92.3428 269.541 84.9663 271.358 77.684C273.175 70.4018 280.552 65.9713 287.834 67.7883C295.116 69.6053 299.547 76.9818 297.73 84.2641Z" fill="#F5661A"/>
<path d="M325.527 112.944C320.555 118.158 312.297 118.354 307.084 113.382C301.87 108.41 301.674 100.153 306.646 94.9391C311.618 89.7252 319.875 89.5292 325.089 94.5012C330.303 99.4733 330.499 107.731 325.527 112.944Z" fill="#F5661A"/>
<path d="M346.184 144.39C340.303 148.031 332.583 146.215 328.942 140.333C325.301 134.452 327.117 126.732 332.999 123.091C338.88 119.45 346.6 121.266 350.241 127.148C353.882 133.03 352.066 140.749 346.184 144.39Z" fill="#F5661A"/>
<path d="M358.528 178.069C352.203 180.094 345.434 176.608 343.409 170.283C341.385 163.958 344.871 157.189 351.196 155.164C357.521 153.14 364.29 156.626 366.314 162.951C368.339 169.276 364.853 176.045 358.528 178.069Z" fill="#F5661A"/>
<path d="M361.867 213.377C355.512 213.854 349.973 209.088 349.496 202.733C349.02 196.377 353.785 190.839 360.141 190.362C366.496 189.885 372.035 194.651 372.512 201.006C372.988 207.362 368.223 212.9 361.867 213.377Z" fill="#F5661A"/>
<path d="M358.372 245.748C352.322 244.83 348.161 239.182 349.078 233.132C349.995 227.082 355.643 222.921 361.694 223.838C367.744 224.755 371.905 230.403 370.988 236.453C370.071 242.504 364.422 246.665 358.372 245.748Z" fill="#F5661A"/>
<path d="M347.092 276.538C341.609 274.431 338.872 268.279 340.979 262.796C343.086 257.313 349.238 254.577 354.721 256.684C360.204 258.79 362.941 264.943 360.834 270.426C358.727 275.908 352.574 278.645 347.092 276.538Z" fill="#F5661A"/>
<path d="M331.978 302.088C327.245 299.022 325.894 292.701 328.959 287.968C332.024 283.235 338.346 281.883 343.079 284.948C347.812 288.014 349.163 294.336 346.098 299.068C343.033 303.801 336.711 305.153 331.978 302.088Z" fill="#F5661A"/>
<path d="M311.929 324.667C308.057 320.882 307.986 314.674 311.772 310.802C315.557 306.929 321.765 306.859 325.637 310.644C329.509 314.43 329.58 320.638 325.794 324.51C322.009 328.382 315.801 328.453 311.929 324.667Z" fill="#F5661A"/>
<path d="M288.817 340.465C285.861 336.191 286.929 330.329 291.204 327.373C295.478 324.416 301.339 325.485 304.296 329.759C307.252 334.033 306.183 339.895 301.909 342.851C297.635 345.807 291.774 344.739 288.817 340.465Z" fill="#F5661A"/>
<path d="M264.464 351.644C262.423 347.09 264.46 341.745 269.014 339.704C273.567 337.663 278.913 339.7 280.953 344.254C282.994 348.807 280.957 354.153 276.404 356.194C271.85 358.234 266.504 356.197 264.464 351.644Z" fill="#F5661A"/>
<path d="M239.713 359.288C238.551 354.64 241.378 349.931 246.026 348.769C250.674 347.608 255.384 350.434 256.545 355.082C257.707 359.73 254.88 364.44 250.232 365.602C245.584 366.763 240.874 363.937 239.713 359.288Z" fill="#F5661A"/>
<path d="M214.417 362.455C214.07 357.87 217.505 353.872 222.09 353.525C226.675 353.178 230.673 356.613 231.02 361.198C231.367 365.782 227.932 369.78 223.347 370.127C218.763 370.474 214.765 367.039 214.417 362.455Z" fill="#F5661A"/>
<path d="M190.414 360.143C190.799 355.744 194.676 352.49 199.075 352.874C203.473 353.258 206.728 357.135 206.344 361.534C205.96 365.933 202.083 369.187 197.684 368.803C193.285 368.419 190.03 364.542 190.414 360.143Z" fill="#F5661A"/>
<path d="M168.598 355.354C169.618 351.24 173.78 348.732 177.894 349.752C182.009 350.773 184.517 354.935 183.496 359.049C182.476 363.163 178.313 365.671 174.199 364.651C170.085 363.63 167.577 359.468 168.598 355.354Z" fill="#F5661A"/>
<path d="M147.862 347.053C149.42 343.296 153.729 341.513 157.487 343.071C161.244 344.629 163.027 348.938 161.469 352.695C159.911 356.453 155.602 358.236 151.845 356.678C148.088 355.12 146.305 350.811 147.862 347.053Z" fill="#F5661A"/>
<path d="M129.116 336.19C131.114 332.835 135.453 331.734 138.808 333.732C142.163 335.73 143.263 340.069 141.265 343.424C139.268 346.779 134.929 347.879 131.574 345.882C128.219 343.884 127.118 339.545 129.116 336.19Z" fill="#F5661A"/>
<path d="M113.291 323.711C115.634 320.783 119.907 320.31 122.835 322.654C125.762 324.997 126.236 329.27 123.892 332.198C121.548 335.125 117.275 335.598 114.348 333.255C111.42 330.911 110.947 326.638 113.291 323.711Z" fill="#F5661A"/>
<path d="M110.5 302V130H126.5V302H110.5ZM151.586 302L219.336 130H238.336L305.836 302H289.086L269.086 251.25H187.836L168.086 302H151.586ZM193.086 237H263.836L229.086 148H227.836L193.086 237Z" fill="#FAFAF9"/>
</svg>
