<svg width="1024" height="512" viewBox="0 0 1024 512" fill="none" xmlns="http://www.w3.org/2000/svg">
<path d="M201 343V171H312.75V189.5H222.5V246.75H301V265.5H222.5V324.5H312.75V343H201ZM405.385 345C393.551 345 383.635 344.333 375.635 343C367.801 341.5 361.468 339.083 356.635 335.75C351.801 332.417 348.135 327.833 345.635 322C343.135 316 341.468 308.583 340.635 299.75C339.801 290.917 339.385 280.25 339.385 267.75V171H360.885V276.25C360.885 286.75 361.301 295.25 362.135 301.75C362.968 308.25 364.718 313.333 367.385 317C370.218 320.667 374.635 323.167 380.635 324.5C386.635 325.833 394.885 326.5 405.385 326.5C415.885 326.5 424.051 325.833 429.885 324.5C435.885 323.167 440.218 320.667 442.885 317C445.718 313.333 447.468 308.25 448.135 301.75C448.801 295.25 449.135 286.75 449.135 276.25V171H470.635V267.75C470.635 280.25 470.218 290.917 469.385 299.75C468.718 308.583 467.135 316 464.635 322C462.301 327.833 458.718 332.417 453.885 335.75C449.051 339.083 442.635 341.5 434.635 343C426.801 344.333 417.051 345 405.385 345ZM508.637 343V171H615.387V189.5H530.137V250.75H606.137V269.25H530.137V343H508.637ZM639.994 343V171H661.494V343H639.994ZM683.527 343L748.527 171H775.527L840.277 343H818.027L800.277 296H723.027L705.277 343H683.527ZM729.527 277.25H793.777L762.277 193H761.027L729.527 277.25Z" fill="#292524"/>
<path d="M666.672 122.368C673.624 130.952 672.3 143.546 663.716 150.497C655.132 157.449 642.538 156.125 635.586 147.541C628.635 138.957 629.959 126.363 638.543 119.411C647.127 112.46 659.721 113.784 666.672 122.368Z" fill="#F05F00"/>
<path d="M719.876 103.167C722.918 113.21 717.242 123.817 707.199 126.859C697.156 129.901 686.549 124.225 683.507 114.182C680.466 104.139 686.141 93.5321 696.184 90.4904C706.227 87.4487 716.834 93.1243 719.876 103.167Z" fill="#F05F00"/>
<path d="M774.681 103.643C773.951 113.585 765.3 121.053 755.358 120.323C745.416 119.593 737.948 110.941 738.678 100.999C739.408 91.0574 748.06 83.5897 758.002 84.3198C767.943 85.0499 775.411 93.7013 774.681 103.643Z" fill="#F05F00"/>
<path d="M822.256 122.701C818.373 131.34 808.222 135.196 799.582 131.314C790.943 127.431 787.087 117.28 790.97 108.641C794.852 100.001 805.004 96.1454 813.643 100.028C822.282 103.911 826.138 114.062 822.256 122.701Z" fill="#F05F00"/>
<path d="M861.718 150.958C857.388 158.844 847.485 161.727 839.599 157.396C831.712 153.066 828.83 143.163 833.16 135.277C837.49 127.391 847.393 124.508 855.279 128.838C863.165 133.168 866.048 143.071 861.718 150.958Z" fill="#F05F00"/>
<path d="M883.331 193.575C875.84 197.689 866.432 194.95 862.319 187.459C858.205 179.967 860.944 170.559 868.435 166.446C875.927 162.332 885.335 165.071 889.448 172.563C893.561 180.054 890.823 189.462 883.331 193.575Z" fill="#F05F00"/>
<path d="M894.523 236.756C886.571 238.391 878.799 233.271 877.163 225.318C875.528 217.366 880.649 209.594 888.601 207.959C896.553 206.323 904.326 211.444 905.961 219.397C907.596 227.349 902.475 235.121 894.523 236.756Z" fill="#F05F00"/>
<path d="M891.812 277.701C884.125 277.074 878.401 270.335 879.028 262.648C879.654 254.96 886.394 249.237 894.081 249.863C901.768 250.49 907.492 257.23 906.865 264.917C906.239 272.604 899.499 278.328 891.812 277.701Z" fill="#F05F00"/>
<path d="M880.407 316.35C873.526 313.828 869.992 306.205 872.514 299.323C875.037 292.442 882.659 288.909 889.541 291.431C896.422 293.953 899.955 301.576 897.433 308.457C894.911 315.338 887.288 318.872 880.407 316.35Z" fill="#F05F00"/>
<path d="M859.255 347.492C853.54 343.516 852.131 335.661 856.107 329.946C860.083 324.232 867.939 322.823 873.653 326.799C879.368 330.775 880.777 338.63 876.801 344.345C872.825 350.059 864.969 351.468 859.255 347.492Z" fill="#F05F00"/>
<path d="M834.093 372.768C829.736 367.792 830.237 360.227 835.212 355.87C840.188 351.512 847.753 352.014 852.111 356.989C856.468 361.964 855.967 369.53 850.991 373.887C846.016 378.244 838.45 377.743 834.093 372.768Z" fill="#F05F00"/>
<path d="M804.572 389.608C801.629 384.058 803.742 377.173 809.291 374.229C814.841 371.286 821.727 373.399 824.67 378.949C827.614 384.499 825.501 391.384 819.951 394.328C814.401 397.271 807.516 395.158 804.572 389.608Z" fill="#F05F00"/>
<path d="M773.301 399.295C771.723 393.54 775.108 387.595 780.863 386.016C786.618 384.437 792.563 387.823 794.142 393.578C795.72 399.333 792.335 405.278 786.58 406.856C780.825 408.435 774.88 405.049 773.301 399.295Z" fill="#F05F00"/>
<path d="M742.902 400.957C742.569 395.298 746.887 390.44 752.546 390.107C758.205 389.774 763.063 394.091 763.397 399.751C763.73 405.41 759.412 410.268 753.753 410.601C748.093 410.935 743.235 406.617 742.902 400.957Z" fill="#F05F00"/>
<path d="M713.038 398.623C713.787 393.287 718.72 389.57 724.055 390.32C729.39 391.07 733.107 396.003 732.358 401.338C731.608 406.673 726.675 410.39 721.34 409.64C716.005 408.89 712.288 403.958 713.038 398.623Z" fill="#F05F00"/>
<path d="M704.207 390.709C705.73 395.252 703.282 400.169 698.739 401.691C694.196 403.214 689.28 400.766 687.757 396.223C686.234 391.68 688.683 386.764 693.225 385.241C697.768 383.718 702.685 386.167 704.207 390.709Z" fill="#F05F00"/>
<path d="M662.887 377.746C665.249 373.495 670.61 371.965 674.861 374.328C679.111 376.691 680.641 382.052 678.278 386.302C675.915 390.552 670.554 392.082 666.304 389.72C662.054 387.357 660.524 381.996 662.887 377.746Z" fill="#F05F00"/>
<path d="M644.214 363.003C647.108 359.406 652.371 358.836 655.968 361.73C659.565 364.625 660.135 369.887 657.241 373.484C654.346 377.082 649.084 377.652 645.487 374.757C641.889 371.863 641.319 366.6 644.214 363.003Z" fill="#F05F00"/>
</svg>
