<svg width="1024" height="512" viewBox="0 0 1024 512" fill="none" xmlns="http://www.w3.org/2000/svg">
<path d="M204 343V171H313.5V185.25H220V249H301.75V263.25H220V328.75H313.5V343H204ZM406.896 345C395.063 345 385.23 344.333 377.396 343C369.563 341.5 363.313 339.083 358.646 335.75C353.98 332.417 350.396 327.833 347.896 322C345.396 316.167 343.73 308.917 342.896 300.25C342.23 291.417 341.896 280.833 341.896 268.5V171H357.896V276.5C357.896 287.667 358.313 296.833 359.146 304C360.146 311 362.146 316.5 365.146 320.5C368.146 324.333 372.98 327 379.646 328.5C386.313 330 395.396 330.75 406.896 330.75C418.396 330.75 427.396 330 433.896 328.5C440.396 327 445.146 324.333 448.146 320.5C451.313 316.5 453.23 311 453.896 304C454.73 296.833 455.146 287.667 455.146 276.5V171H471.146V268.5C471.146 280.833 470.813 291.417 470.146 300.25C469.48 308.917 467.896 316.167 465.396 322C463.063 327.833 459.563 332.417 454.896 335.75C450.23 339.083 443.98 341.5 436.146 343C428.313 344.333 418.563 345 406.896 345ZM512.125 343V171H616.625V185.25H528.125V252.75H607.375V266.75H528.125V343H512.125ZM642.994 343V171H658.994V343H642.994ZM684.08 343L751.83 171H770.83L838.33 343H821.58L801.58 292.25H720.33L700.58 343H684.08ZM725.58 278H796.33L761.58 189H760.33L725.58 278Z" fill="#292524"/>
<path d="M663.406 125.914C668.967 132.782 667.908 142.857 661.041 148.418C654.174 153.979 644.098 152.92 638.537 146.053C632.976 139.185 634.035 129.11 640.903 123.549C647.77 117.988 657.845 119.047 663.406 125.914Z" fill="#F5661A"/>
<path d="M705.19 107.27C708.244 115.184 704.304 124.075 696.39 127.129C688.475 130.183 679.584 126.243 676.53 118.329C673.476 110.414 677.416 101.523 685.33 98.4689C693.245 95.415 702.136 99.3552 705.19 107.27Z" fill="#F5661A"/>
<path d="M749.427 102.698C749.982 110.823 743.846 117.859 735.722 118.414C727.597 118.97 720.561 112.834 720.005 104.709C719.45 96.5847 725.586 89.5483 733.711 88.993C741.835 88.4377 748.872 94.5738 749.427 102.698Z" fill="#F5661A"/>
<path d="M791.544 109.984C789.84 117.614 782.274 122.417 774.644 120.713C767.014 119.009 762.211 111.443 763.915 103.813C765.619 96.1835 773.185 91.3798 780.815 93.0838C788.444 94.7879 793.248 102.354 791.544 109.984Z" fill="#F5661A"/>
<path d="M830.081 124.764C828.264 132.047 820.888 136.477 813.605 134.66C806.323 132.843 801.892 125.466 803.709 118.184C805.527 110.902 812.903 106.471 820.185 108.288C827.468 110.106 831.898 117.482 830.081 124.764Z" fill="#F5661A"/>
<path d="M857.878 153.444C852.906 158.658 844.649 158.854 839.435 153.882C834.221 148.91 834.025 140.653 838.997 135.439C843.969 130.225 852.226 130.029 857.44 135.001C862.654 139.973 862.85 148.23 857.878 153.444Z" fill="#F5661A"/>
<path d="M878.536 184.89C872.654 188.531 864.935 186.715 861.294 180.833C857.653 174.952 859.469 167.232 865.35 163.591C871.232 159.95 878.952 161.766 882.593 167.648C886.234 173.529 884.417 181.249 878.536 184.89Z" fill="#F5661A"/>
<path d="M890.88 218.57C884.555 220.594 877.786 217.108 875.761 210.783C873.737 204.458 877.223 197.689 883.548 195.664C889.873 193.64 896.642 197.126 898.666 203.451C900.691 209.776 897.205 216.545 890.88 218.57Z" fill="#F5661A"/>
<path d="M894.219 253.877C887.863 254.354 882.325 249.588 881.848 243.233C881.371 236.877 886.137 231.338 892.492 230.862C898.848 230.385 904.386 235.151 904.863 241.506C905.34 247.862 900.574 253.4 894.219 253.877Z" fill="#F5661A"/>
<path d="M890.724 286.247C884.673 285.33 880.512 279.682 881.429 273.632C882.347 267.582 887.995 263.421 894.045 264.338C900.095 265.255 904.256 270.903 903.339 276.953C902.422 283.003 896.774 287.165 890.724 286.247Z" fill="#F5661A"/>
<path d="M879.443 317.038C873.961 314.931 871.224 308.779 873.331 303.296C875.438 297.814 881.59 295.077 887.073 297.184C892.555 299.29 895.292 305.443 893.185 310.926C891.078 316.408 884.926 319.145 879.443 317.038Z" fill="#F5661A"/>
<path d="M864.33 342.587C859.597 339.522 858.245 333.2 861.31 328.468C864.376 323.735 870.698 322.383 875.43 325.448C880.163 328.514 881.515 334.835 878.45 339.568C875.384 344.301 869.063 345.653 864.33 342.587Z" fill="#F5661A"/>
<path d="M844.28 365.167C840.408 361.382 840.337 355.174 844.123 351.302C847.908 347.429 854.116 347.359 857.988 351.144C861.861 354.93 861.931 361.138 858.146 365.01C854.36 368.882 848.152 368.953 844.28 365.167Z" fill="#F5661A"/>
<path d="M821.169 380.965C818.212 376.691 819.281 370.829 823.555 367.873C827.829 364.917 833.691 365.985 836.647 370.259C839.603 374.533 838.535 380.395 834.261 383.351C829.987 386.308 824.125 385.239 821.169 380.965Z" fill="#F5661A"/>
<path d="M796.815 392.144C794.775 387.59 796.812 382.245 801.365 380.204C805.919 378.163 811.264 380.2 813.305 384.754C815.346 389.307 813.309 394.653 808.755 396.694C804.202 398.734 798.856 396.697 796.815 392.144Z" fill="#F5661A"/>
<path d="M772.064 399.788C770.903 395.14 773.729 390.431 778.378 389.269C783.026 388.108 787.735 390.934 788.897 395.582C790.058 400.23 787.232 404.94 782.584 406.102C777.936 407.263 773.226 404.437 772.064 399.788Z" fill="#F5661A"/>
<path d="M746.769 402.954C746.422 398.37 749.857 394.372 754.441 394.025C759.026 393.677 763.024 397.113 763.371 401.697C763.718 406.282 760.283 410.28 755.699 410.627C751.114 410.974 747.116 407.539 746.769 402.954Z" fill="#F5661A"/>
<path d="M722.766 400.643C723.15 396.244 727.027 392.99 731.426 393.374C735.825 393.758 739.079 397.635 738.695 402.034C738.311 406.433 734.434 409.687 730.035 409.303C725.637 408.919 722.382 405.042 722.766 400.643Z" fill="#F5661A"/>
<path d="M700.949 395.854C701.969 391.74 706.131 389.232 710.246 390.252C714.36 391.273 716.868 395.435 715.847 399.549C714.827 403.663 710.664 406.171 706.55 405.151C702.436 404.13 699.928 399.968 700.949 395.854Z" fill="#F5661A"/>
<path d="M680.214 387.553C681.772 383.796 686.081 382.013 689.839 383.571C693.596 385.129 695.379 389.438 693.821 393.195C692.263 396.952 687.954 398.736 684.197 397.178C680.439 395.62 678.656 391.311 680.214 387.553Z" fill="#F5661A"/>
<path d="M661.467 376.69C663.465 373.335 667.804 372.235 671.159 374.232C674.514 376.23 675.615 380.569 673.617 383.924C671.619 387.279 667.28 388.379 663.925 386.382C660.57 384.384 659.47 380.045 661.467 376.69Z" fill="#F5661A"/>
<path d="M645.642 364.211C647.985 361.283 652.259 360.81 655.186 363.154C658.113 365.497 658.587 369.77 656.243 372.698C653.899 375.625 649.626 376.098 646.699 373.755C643.771 371.411 643.298 367.138 645.642 364.211Z" fill="#F5661A"/>
</svg>
