<svg width="1024" height="1024" viewBox="0 0 1024 1024" fill="none" xmlns="http://www.w3.org/2000/svg">
<path d="M204 599V427H313.5V441.25H220V505H301.75V519.25H220V584.75H313.5V599H204ZM406.896 601C395.063 601 385.23 600.333 377.396 599C369.563 597.5 363.313 595.083 358.646 591.75C353.98 588.417 350.396 583.833 347.896 578C345.396 572.167 343.73 564.917 342.896 556.25C342.23 547.417 341.896 536.833 341.896 524.5V427H357.896V532.5C357.896 543.667 358.313 552.833 359.146 560C360.146 567 362.146 572.5 365.146 576.5C368.146 580.333 372.98 583 379.646 584.5C386.313 586 395.396 586.75 406.896 586.75C418.396 586.75 427.396 586 433.896 584.5C440.396 583 445.146 580.333 448.146 576.5C451.313 572.5 453.23 567 453.896 560C454.73 552.833 455.146 543.667 455.146 532.5V427H471.146V524.5C471.146 536.833 470.813 547.417 470.146 556.25C469.48 564.917 467.896 572.167 465.396 578C463.063 583.833 459.563 588.417 454.896 591.75C450.23 595.083 443.98 597.5 436.146 599C428.313 600.333 418.563 601 406.896 601ZM512.125 599V427H616.625V441.25H528.125V508.75H607.375V522.75H528.125V599H512.125ZM642.994 599V427H658.994V599H642.994ZM684.08 599L751.83 427H770.83L838.33 599H821.58L801.58 548.25H720.33L700.58 599H684.08ZM725.58 534H796.33L761.58 445H760.33L725.58 534Z" fill="#292524"/>
<path d="M663.406 381.914C668.967 388.782 667.908 398.857 661.041 404.418C654.174 409.979 644.098 408.92 638.537 402.053C632.976 395.185 634.035 385.11 640.903 379.549C647.77 373.988 657.845 375.047 663.406 381.914Z" fill="#F5661A"/>
<path d="M705.19 363.27C708.244 371.184 704.304 380.075 696.39 383.129C688.475 386.183 679.584 382.243 676.53 374.329C673.476 366.414 677.416 357.523 685.33 354.469C693.245 351.415 702.136 355.355 705.19 363.27Z" fill="#F5661A"/>
<path d="M749.427 358.698C749.982 366.823 743.846 373.859 735.722 374.414C727.597 374.97 720.561 368.834 720.005 360.709C719.45 352.585 725.586 345.548 733.711 344.993C741.835 344.438 748.872 350.574 749.427 358.698Z" fill="#F5661A"/>
<path d="M791.544 365.984C789.84 373.614 782.274 378.417 774.644 376.713C767.014 375.009 762.211 367.443 763.915 359.813C765.619 352.183 773.185 347.38 780.815 349.084C788.444 350.788 793.248 358.354 791.544 365.984Z" fill="#F5661A"/>
<path d="M830.081 380.764C828.264 388.047 820.888 392.477 813.605 390.66C806.323 388.843 801.892 381.466 803.709 374.184C805.527 366.902 812.903 362.471 820.185 364.288C827.468 366.105 831.898 373.482 830.081 380.764Z" fill="#F5661A"/>
<path d="M857.878 409.444C852.906 414.658 844.649 414.854 839.435 409.882C834.221 404.91 834.025 396.653 838.997 391.439C843.969 386.225 852.226 386.029 857.44 391.001C862.654 395.973 862.85 404.23 857.878 409.444Z" fill="#F5661A"/>
<path d="M878.536 440.89C872.654 444.531 864.935 442.715 861.294 436.833C857.653 430.952 859.469 423.232 865.35 419.591C871.232 415.95 878.952 417.766 882.593 423.648C886.234 429.529 884.417 437.249 878.536 440.89Z" fill="#F5661A"/>
<path d="M890.88 474.57C884.555 476.594 877.786 473.108 875.761 466.783C873.737 460.458 877.223 453.689 883.548 451.664C889.873 449.64 896.642 453.126 898.666 459.451C900.691 465.776 897.205 472.545 890.88 474.57Z" fill="#F5661A"/>
<path d="M894.219 509.877C887.863 510.354 882.325 505.588 881.848 499.233C881.371 492.877 886.137 487.338 892.492 486.862C898.848 486.385 904.386 491.151 904.863 497.506C905.34 503.862 900.574 509.4 894.219 509.877Z" fill="#F5661A"/>
<path d="M890.724 542.247C884.673 541.33 880.512 535.682 881.429 529.632C882.347 523.582 887.995 519.421 894.045 520.338C900.095 521.255 904.256 526.903 903.339 532.953C902.422 539.003 896.774 543.165 890.724 542.247Z" fill="#F5661A"/>
<path d="M879.443 573.038C873.961 570.931 871.224 564.779 873.331 559.296C875.438 553.814 881.59 551.077 887.073 553.184C892.555 555.291 895.292 561.443 893.185 566.926C891.078 572.408 884.926 575.145 879.443 573.038Z" fill="#F5661A"/>
<path d="M864.33 598.587C859.597 595.522 858.245 589.2 861.31 584.468C864.376 579.735 870.698 578.383 875.43 581.448C880.163 584.514 881.515 590.835 878.45 595.568C875.384 600.301 869.063 601.653 864.33 598.587Z" fill="#F5661A"/>
<path d="M844.28 621.167C840.408 617.382 840.337 611.174 844.123 607.302C847.908 603.429 854.116 603.359 857.988 607.144C861.861 610.93 861.931 617.138 858.146 621.01C854.36 624.882 848.152 624.953 844.28 621.167Z" fill="#F5661A"/>
<path d="M821.169 636.965C818.212 632.691 819.281 626.829 823.555 623.873C827.829 620.917 833.691 621.985 836.647 626.259C839.603 630.533 838.535 636.395 834.261 639.351C829.987 642.308 824.125 641.239 821.169 636.965Z" fill="#F5661A"/>
<path d="M796.815 648.144C794.775 643.59 796.812 638.245 801.365 636.204C805.919 634.163 811.264 636.2 813.305 640.754C815.346 645.307 813.309 650.653 808.755 652.694C804.202 654.734 798.856 652.697 796.815 648.144Z" fill="#F5661A"/>
<path d="M772.064 655.788C770.903 651.14 773.729 646.431 778.378 645.269C783.026 644.108 787.735 646.934 788.897 651.582C790.058 656.23 787.232 660.94 782.584 662.102C777.936 663.263 773.226 660.437 772.064 655.788Z" fill="#F5661A"/>
<path d="M746.769 658.954C746.422 654.37 749.857 650.372 754.441 650.025C759.026 649.677 763.024 653.113 763.371 657.697C763.718 662.282 760.283 666.28 755.699 666.627C751.114 666.974 747.116 663.539 746.769 658.954Z" fill="#F5661A"/>
<path d="M722.766 656.643C723.15 652.244 727.027 648.99 731.426 649.374C735.825 649.758 739.079 653.635 738.695 658.034C738.311 662.433 734.434 665.687 730.035 665.303C725.637 664.919 722.382 661.042 722.766 656.643Z" fill="#F5661A"/>
<path d="M700.949 651.854C701.969 647.74 706.131 645.232 710.246 646.252C714.36 647.273 716.868 651.435 715.847 655.549C714.827 659.663 710.664 662.171 706.55 661.151C702.436 660.13 699.928 655.968 700.949 651.854Z" fill="#F5661A"/>
<path d="M680.214 643.553C681.772 639.796 686.081 638.013 689.839 639.571C693.596 641.129 695.379 645.438 693.821 649.195C692.263 652.953 687.954 654.736 684.197 653.178C680.439 651.62 678.656 647.311 680.214 643.553Z" fill="#F5661A"/>
<path d="M661.467 632.69C663.465 629.335 667.804 628.234 671.159 630.232C674.514 632.23 675.615 636.569 673.617 639.924C671.619 643.279 667.28 644.379 663.925 642.382C660.57 640.384 659.47 636.045 661.467 632.69Z" fill="#F5661A"/>
<path d="M645.642 620.211C647.985 617.283 652.259 616.81 655.186 619.154C658.113 621.497 658.587 625.77 656.243 628.698C653.899 631.625 649.626 632.098 646.699 629.755C643.771 627.411 643.298 623.138 645.642 620.211Z" fill="#F5661A"/>
</svg>
