<svg width="425" height="425" viewBox="0 0 425 425" fill="none" xmlns="http://www.w3.org/2000/svg">
<path d="M131.054 85.4144C136.616 92.2817 135.557 102.357 128.689 107.918C121.822 113.479 111.747 112.42 106.186 105.553C100.625 98.6853 101.684 88.6102 108.551 83.0492C115.418 77.4881 125.493 78.5471 131.054 85.4144Z" fill="#F5661A"/>
<path d="M172.839 66.7695C175.892 74.6838 171.952 83.5753 164.038 86.6292C156.124 89.6831 147.232 85.7429 144.178 77.8286C141.124 69.9142 145.065 61.0227 152.979 57.9689C160.893 54.915 169.785 58.8551 172.839 66.7695Z" fill="#F5661A"/>
<path d="M217.075 62.1983C217.631 70.3228 211.495 77.3591 203.37 77.9144C195.246 78.4697 188.209 72.3337 187.654 64.2092C187.099 56.0847 193.235 49.0484 201.359 48.4931C209.484 47.9378 216.52 54.0738 217.075 62.1983Z" fill="#F5661A"/>
<path d="M259.193 69.484C257.489 77.1136 249.922 81.9172 242.293 80.2132C234.663 78.5092 229.859 70.9428 231.563 63.3132C233.267 55.6836 240.834 50.8799 248.463 52.5839C256.093 54.288 260.897 61.8544 259.193 69.484Z" fill="#F5661A"/>
<path d="M297.729 84.2643C295.912 91.5466 288.536 95.9771 281.254 94.16C273.971 92.343 269.541 84.9666 271.358 77.6843C273.175 70.402 280.551 65.9715 287.834 67.7886C295.116 69.6056 299.546 76.982 297.729 84.2643Z" fill="#F5661A"/>
<path d="M325.527 112.944C320.555 118.158 312.297 118.354 307.083 113.382C301.87 108.41 301.673 100.153 306.646 94.9391C311.618 89.7252 319.875 89.5292 325.089 94.5012C330.303 99.4733 330.499 107.731 325.527 112.944Z" fill="#F5661A"/>
<path d="M346.184 144.39C340.303 148.031 332.583 146.215 328.942 140.333C325.301 134.452 327.117 126.732 332.999 123.091C338.88 119.45 346.6 121.266 350.241 127.148C353.882 133.03 352.066 140.749 346.184 144.39Z" fill="#F5661A"/>
<path d="M358.528 178.07C352.203 180.094 345.434 176.608 343.41 170.283C341.385 163.958 344.871 157.189 351.196 155.165C357.521 153.14 364.29 156.626 366.315 162.951C368.34 169.276 364.853 176.045 358.528 178.07Z" fill="#F5661A"/>
<path d="M361.867 213.377C355.512 213.854 349.973 209.088 349.496 202.733C349.02 196.377 353.785 190.839 360.141 190.362C366.496 189.885 372.035 194.651 372.512 201.006C372.988 207.362 368.223 212.9 361.867 213.377Z" fill="#F5661A"/>
<path d="M358.372 245.748C352.322 244.83 348.161 239.182 349.078 233.132C349.995 227.082 355.643 222.921 361.693 223.838C367.744 224.755 371.905 230.403 370.988 236.453C370.07 242.504 364.422 246.665 358.372 245.748Z" fill="#F5661A"/>
<path d="M347.092 276.538C341.609 274.431 338.872 268.279 340.979 262.796C343.086 257.314 349.238 254.577 354.721 256.684C360.204 258.791 362.941 264.943 360.834 270.426C358.727 275.908 352.574 278.645 347.092 276.538Z" fill="#F5661A"/>
<path d="M331.978 302.087C327.245 299.022 325.894 292.7 328.959 287.968C332.024 283.235 338.346 281.883 343.079 284.948C347.812 288.014 349.163 294.335 346.098 299.068C343.033 303.801 336.711 305.153 331.978 302.087Z" fill="#F5661A"/>
<path d="M311.929 324.667C308.056 320.882 307.986 314.674 311.771 310.802C315.557 306.929 321.765 306.859 325.637 310.644C329.509 314.43 329.58 320.638 325.794 324.51C322.009 328.382 315.801 328.453 311.929 324.667Z" fill="#F5661A"/>
<path d="M288.817 340.465C285.861 336.191 286.929 330.329 291.204 327.373C295.478 324.417 301.339 325.485 304.296 329.759C307.252 334.033 306.183 339.895 301.909 342.851C297.635 345.808 291.774 344.739 288.817 340.465Z" fill="#F5661A"/>
<path d="M264.464 351.644C262.423 347.09 264.46 341.744 269.014 339.704C273.567 337.663 278.913 339.7 280.953 344.254C282.994 348.807 280.957 354.153 276.404 356.193C271.85 358.234 266.504 356.197 264.464 351.644Z" fill="#F5661A"/>
<path d="M239.713 359.288C238.551 354.64 241.378 349.931 246.026 348.769C250.674 347.608 255.384 350.434 256.545 355.082C257.707 359.73 254.88 364.44 250.232 365.602C245.584 366.763 240.874 363.937 239.713 359.288Z" fill="#F5661A"/>
<path d="M214.417 362.454C214.07 357.87 217.505 353.872 222.09 353.525C226.675 353.177 230.673 356.613 231.02 361.197C231.367 365.782 227.932 369.78 223.347 370.127C218.762 370.474 214.764 367.039 214.417 362.454Z" fill="#F5661A"/>
<path d="M190.414 360.143C190.799 355.744 194.676 352.49 199.075 352.874C203.473 353.258 206.728 357.135 206.344 361.534C205.96 365.933 202.083 369.187 197.684 368.803C193.285 368.419 190.03 364.542 190.414 360.143Z" fill="#F5661A"/>
<path d="M168.597 355.354C169.617 351.24 173.78 348.732 177.894 349.752C182.008 350.773 184.516 354.935 183.496 359.049C182.475 363.163 178.313 365.671 174.199 364.651C170.085 363.63 167.577 359.468 168.597 355.354Z" fill="#F5661A"/>
<path d="M147.863 347.053C149.421 343.296 153.73 341.513 157.487 343.071C161.244 344.629 163.027 348.938 161.47 352.695C159.912 356.453 155.603 358.236 151.845 356.678C148.088 355.12 146.305 350.811 147.863 347.053Z" fill="#F5661A"/>
<path d="M129.116 336.19C131.114 332.835 135.453 331.734 138.808 333.732C142.163 335.73 143.263 340.069 141.265 343.424C139.268 346.779 134.929 347.879 131.574 345.881C128.219 343.884 127.118 339.545 129.116 336.19Z" fill="#F5661A"/>
<path d="M113.29 323.711C115.634 320.783 119.907 320.31 122.834 322.654C125.762 324.997 126.235 329.27 123.891 332.198C121.548 335.125 117.275 335.599 114.347 333.255C111.42 330.911 110.947 326.638 113.29 323.711Z" fill="#F5661A"/>
<path d="M110.5 302V130H126.5V302H110.5ZM151.586 302L219.336 130H238.336L305.836 302H289.086L269.086 251.25H187.836L168.086 302H151.586ZM193.086 237H263.836L229.086 148H227.836L193.086 237Z" fill="#292524"/>
</svg>
