<svg width="426" height="426" viewBox="0 0 426 426" fill="none" xmlns="http://www.w3.org/2000/svg">
<path d="M135.229 83.7779C142.18 92.362 140.856 104.956 132.272 111.907C123.688 118.858 111.094 117.535 104.143 108.951C97.1915 100.367 98.5152 87.7726 107.099 80.8214C115.683 73.8701 128.277 75.1938 135.229 83.7779Z" fill="#F05F00"/>
<path d="M188.433 64.5772C191.474 74.6201 185.799 85.2272 175.756 88.2689C165.713 91.3106 155.106 85.635 152.064 75.5921C149.022 65.5492 154.698 54.9421 164.741 51.9004C174.784 48.8587 185.391 54.5343 188.433 64.5772Z" fill="#F05F00"/>
<path d="M243.238 65.0532C242.507 74.9952 233.856 82.4629 223.914 81.7328C213.972 81.0027 206.504 72.3513 207.235 62.4093C207.965 52.4673 216.616 44.9996 226.558 45.7297C236.5 46.4598 243.968 55.1112 243.238 65.0532Z" fill="#F05F00"/>
<path d="M290.812 84.111C286.929 92.7503 276.778 96.6063 268.139 92.7237C259.5 88.841 255.644 78.6899 259.526 70.0506C263.409 61.4113 273.56 57.5553 282.199 61.438C290.839 65.3206 294.695 75.4717 290.812 84.111Z" fill="#F05F00"/>
<path d="M330.274 112.368C325.944 120.254 316.041 123.136 308.155 118.806C300.269 114.476 297.386 104.573 301.716 96.6869C306.046 88.8008 315.949 85.918 323.836 90.2481C331.722 94.5781 334.604 104.481 330.274 112.368Z" fill="#F05F00"/>
<path d="M351.888 154.985C344.396 159.099 334.988 156.36 330.875 148.869C326.761 141.377 329.5 131.969 336.992 127.856C344.483 123.742 353.891 126.481 358.004 133.973C362.118 141.464 359.379 150.872 351.888 154.985Z" fill="#F05F00"/>
<path d="M363.079 198.166C355.127 199.801 347.355 194.68 345.72 186.728C344.085 178.776 349.205 171.004 357.158 169.369C365.11 167.733 372.882 172.854 374.517 180.807C376.152 188.759 371.032 196.531 363.079 198.166Z" fill="#F05F00"/>
<path d="M360.368 239.111C352.681 238.484 346.958 231.745 347.584 224.058C348.211 216.37 354.95 210.647 362.638 211.273C370.325 211.9 376.048 218.64 375.422 226.327C374.795 234.014 368.056 239.738 360.368 239.111Z" fill="#F05F00"/>
<path d="M348.963 277.76C342.082 275.237 338.549 267.614 341.071 260.733C343.593 253.852 351.216 250.319 358.097 252.841C364.978 255.363 368.512 262.986 365.99 269.867C363.467 276.748 355.844 280.282 348.963 277.76Z" fill="#F05F00"/>
<path d="M327.811 308.902C322.097 304.926 320.687 297.071 324.664 291.356C328.64 285.642 336.495 284.233 342.21 288.209C347.924 292.185 349.333 300.04 345.357 305.755C341.381 311.469 333.525 312.878 327.811 308.902Z" fill="#F05F00"/>
<path d="M302.649 334.178C298.292 329.202 298.793 321.637 303.769 317.28C308.744 312.922 316.31 313.424 320.667 318.399C325.024 323.374 324.523 330.94 319.548 335.297C314.572 339.654 307.007 339.153 302.649 334.178Z" fill="#F05F00"/>
<path d="M273.129 351.018C270.185 345.468 272.298 338.583 277.848 335.639C283.398 332.696 290.283 334.809 293.227 340.359C296.17 345.909 294.057 352.794 288.507 355.738C282.957 358.681 276.072 356.568 273.129 351.018Z" fill="#F05F00"/>
<path d="M241.858 360.705C240.279 354.95 243.665 349.005 249.419 347.426C255.174 345.847 261.119 349.233 262.698 354.988C264.277 360.743 260.891 366.688 255.136 368.266C249.382 369.845 243.437 366.459 241.858 360.705Z" fill="#F05F00"/>
<path d="M211.458 362.367C211.125 356.708 215.443 351.85 221.102 351.517C226.762 351.183 231.62 355.501 231.953 361.161C232.286 366.82 227.969 371.678 222.309 372.011C216.65 372.345 211.792 368.027 211.458 362.367Z" fill="#F05F00"/>
<path d="M181.594 360.033C182.344 354.697 187.276 350.98 192.612 351.73C197.947 352.48 201.664 357.413 200.914 362.748C200.164 368.083 195.231 371.8 189.896 371.05C184.561 370.3 180.844 365.368 181.594 360.033Z" fill="#F05F00"/>
<path d="M172.764 352.119C174.286 356.662 171.838 361.579 167.296 363.101C162.753 364.624 157.836 362.176 156.313 357.633C154.791 353.09 157.239 348.173 161.782 346.651C166.324 345.128 171.241 347.576 172.764 352.119Z" fill="#F05F00"/>
<path d="M131.443 339.156C133.806 334.905 139.167 333.375 143.417 335.738C147.667 338.101 149.197 343.462 146.834 347.712C144.472 351.962 139.111 353.492 134.86 351.13C130.61 348.767 129.08 343.406 131.443 339.156Z" fill="#F05F00"/>
<path d="M112.77 324.413C115.665 320.816 120.927 320.246 124.524 323.14C128.122 326.035 128.691 331.297 125.797 334.894C122.903 338.492 117.64 339.062 114.043 336.167C110.446 333.273 109.876 328.01 112.77 324.413Z" fill="#F05F00"/>
<path d="M108.5 305V133H130V305H108.5ZM152.033 305L217.033 133H244.033L308.783 305H286.533L268.783 258H191.533L173.783 305H152.033ZM198.033 239.25H262.283L230.783 155H229.533L198.033 239.25Z" fill="#292524"/>
</svg>
